<svg width="340" height="265" viewBox="0 0 340 265" fill="none" xmlns="http://www.w3.org/2000/svg">
<path d="M340 132.504C340 205.682 271.07 265 186.034 265C100.999 265 32.0781 205.674 32.0781 132.504C32.0781 128.3 32.3034 124.135 32.7451 120.032C32.9253 118.411 33.1326 116.79 33.385 115.185C38.6394 80.492 59.504 50.0186 89.7059 29.1549C90.4179 28.6585 91.1389 28.1699 91.8599 27.689C117.889 10.3233 150.56 0 186.034 0C271.07 0 340 59.3258 340 132.504Z" fill="#0096C7"/>
<path d="M91.877 125.989L99.7632 142.602L99.3216 142.734L63.9915 126.338C52.7165 125.415 42.1535 123.228 32.7441 120.024C32.9244 118.403 33.1317 116.782 33.384 115.177C38.6385 80.4841 59.5031 50.0107 89.7049 29.147C130.407 32.8931 161.492 53.1984 161.492 77.6764C161.501 101.728 131.506 121.738 91.877 125.989Z" fill="white"/>
<path d="M128.854 127.742L128.907 127.661L128.925 127.566C136.509 88.2923 175.94 70.3167 214.686 71.6864C253.442 73.0565 291.067 93.7626 295.088 131.395L295.09 131.408L295.092 131.422C300.302 163.472 291.868 185.38 276.207 199.45C260.517 213.545 237.491 219.847 213.395 220.483C189.305 221.118 164.217 216.088 144.472 207.598C134.599 203.353 126.08 198.251 119.691 192.574C113.304 186.898 109.076 180.675 107.719 174.187C105.812 162.535 108.655 154.708 113.171 147.921C115.333 144.669 117.88 141.658 120.494 138.566C120.622 138.414 120.75 138.262 120.879 138.11C123.621 134.865 126.417 131.519 128.854 127.742Z" fill="white" stroke="white"/>
<path d="M107.397 174.239C106.298 167.398 106.658 160.426 109.488 153.911C111.768 148.668 115.446 144.037 119.24 139.531C121.16 137.251 123.107 134.986 124.927 132.651C125.855 131.465 126.748 130.255 127.595 129.029C127.973 128.486 128.46 127.92 128.64 127.307C128.821 126.703 128.893 126.059 129.037 125.446C130.119 120.637 131.75 115.906 133.976 111.392C137.969 103.279 143.917 95.9344 151.425 89.9467C158.689 84.153 167.305 79.6855 176.525 76.6064C185.79 73.5195 195.659 71.8054 205.574 71.3788C215.515 70.9522 225.546 71.7976 235.19 73.915C244.743 76.0169 253.945 79.3675 262.21 84.0134C270.439 88.6437 277.685 94.5693 283.228 101.573C289.05 108.918 292.862 117.333 294.602 126.09C295.638 131.31 296.278 136.653 296.666 141.935C297.026 146.876 297.062 151.84 296.657 156.773C295.972 165.219 293.989 173.642 290.186 181.476C286.923 188.192 282.308 194.405 276.459 199.671C270.916 204.658 264.346 208.746 257.217 211.895C249.943 215.098 242.129 217.332 234.135 218.774C225.879 220.263 217.425 220.915 208.998 220.899C200.391 220.884 191.784 220.178 183.312 218.867C175.038 217.588 166.882 215.734 158.968 213.291C151.533 210.995 144.287 208.18 137.473 204.736C131.353 201.649 125.54 198.035 120.493 193.746C116.131 190.038 112.3 185.772 109.795 180.925C108.704 178.776 107.875 176.535 107.397 174.239C107.361 174.045 107.019 174.131 107.064 174.317C108.109 179.273 110.741 183.872 114.184 187.921C118.104 192.528 123.025 196.46 128.334 199.873C134.454 203.797 141.132 207.055 148.072 209.785C155.625 212.763 163.502 215.121 171.532 216.928C179.86 218.798 188.377 220.077 196.948 220.721C205.546 221.365 214.226 221.373 222.815 220.589C231.134 219.837 239.38 218.348 247.258 215.92C254.846 213.578 262.093 210.359 268.528 206.163C275.008 201.928 280.605 196.732 284.958 190.814C289.852 184.175 293.133 176.729 295.043 169.058C297.378 159.697 297.738 150.033 296.918 140.508C296.08 130.805 294.656 121.01 290.231 111.982C286.346 104.055 280.488 96.9194 273.205 91.0403C266.058 85.2698 257.631 80.7326 248.61 77.4595C239.435 74.1322 229.638 72.1001 219.724 71.3168C209.719 70.5334 199.562 71.0298 189.747 72.8757C180.085 74.6906 170.73 77.8396 162.348 82.3691C153.939 86.9219 146.576 92.863 140.916 99.8977C134.643 107.693 130.578 116.666 128.568 125.973C128.406 126.71 128.307 127.37 127.874 128.029C127.433 128.696 126.973 129.347 126.504 129.999C125.612 131.24 124.675 132.457 123.71 133.652C121.836 135.986 119.862 138.259 117.933 140.57C114.184 145.069 110.696 149.769 108.641 155.051C106.226 161.271 106.018 167.856 107.055 174.309C107.091 174.503 107.424 174.425 107.397 174.239Z" fill="#0096C7"/>
<path d="M157.833 131.046C159.041 106.226 140.988 112.129 138.293 122.057C132.994 142.362 155.571 139.352 157.833 131.046Z" fill="#0096C7"/>
<path d="M238.623 119.357C265.967 125.989 258.054 157.486 229.511 156.4C175.903 154.345 212.215 111.423 238.623 119.357Z" fill="#0096C7"/>
<path d="M155.312 150.645C158.214 146.526 163.558 147.333 164.694 152.933Z" fill="#E6E7E8"/>
<path d="M155.689 150.831C156.708 149.412 158.51 148.055 160.592 148.512C162.891 149.016 163.9 151.227 164.269 153.034C164.369 153.507 165.207 153.305 165.117 152.832C164.747 151.079 163.873 149.21 162.034 148.233C160.574 147.457 158.763 147.535 157.312 148.295C156.311 148.822 155.536 149.598 154.932 150.451C154.635 150.87 155.392 151.242 155.689 150.831Z" fill="#0096C7"/>
<path d="M165.305 196.219C140.682 192.814 118.889 178.822 122.918 151.079L124.089 150.621C150.226 169.802 191.045 170.259 226.402 167.452C227.376 174.61 224.221 180.66 218.471 185.391C207.016 194.815 185.232 198.988 165.305 196.219Z" fill="#0096C7"/>
<path d="M165.773 194.769C156.67 193.497 147.756 190.806 140.285 186.075C132.894 181.398 127.622 174.673 125.44 166.995C123.962 161.79 123.917 156.377 124.665 151.079C124.377 151.514 124.089 151.948 123.8 152.375C124.188 152.22 124.584 152.072 124.972 151.917C124.269 151.839 123.557 151.762 122.854 151.684C133.336 159.34 146.107 164.125 159.41 166.824C173.388 169.663 187.881 170.4 202.202 170.175C210.287 170.043 218.353 169.593 226.402 168.957C225.816 168.453 225.239 167.956 224.653 167.452C227.051 186.245 201.274 194.18 183.807 195.351C177.805 195.754 171.73 195.583 165.773 194.769C164.844 194.645 163.889 194.978 163.619 195.816C163.393 196.53 163.898 197.538 164.835 197.67C176.083 199.206 187.773 198.794 198.75 196.103C208.403 193.745 218.209 189.441 223.968 182.119C227.366 177.807 228.808 172.618 228.15 167.452C228.051 166.7 227.42 165.87 226.402 165.948C212.333 167.065 198.165 167.631 184.051 166.847C170.495 166.095 156.778 164.071 144.223 159.464C137.418 156.966 130.965 153.685 125.314 149.559C124.665 149.086 123.962 149.024 123.196 149.327C121.98 149.8 121.295 150.118 121.114 151.39C120.916 152.778 120.79 154.166 120.718 155.562C120.592 158.199 120.718 160.844 121.123 163.458C121.835 168.088 123.44 172.587 126.062 176.69C130.911 184.275 138.987 189.945 148.099 193.435C153.434 195.475 159.058 196.863 164.817 197.67C165.746 197.802 166.701 197.46 166.971 196.623C167.224 195.901 166.71 194.901 165.773 194.769Z" fill="#0096C7"/>
<path d="M218.478 184.794C207.014 194.218 185.23 198.383 165.303 195.621C168.313 189.037 175.523 183.879 183.527 181.761C193.423 179.14 204.211 180.466 214.017 183.32C215.504 183.747 217 184.236 218.478 184.794Z" fill="white"/>
<path d="M217.244 183.725C212.531 187.564 206.6 190.162 200.481 191.907C193.451 193.908 186.051 194.87 178.652 194.948C174.344 194.994 170.027 194.746 165.773 194.164C166.178 194.785 166.584 195.397 166.989 196.018C169.495 190.659 174.875 186.532 180.905 184.198C188.07 181.421 196.425 181.375 204.032 182.6C208.655 183.345 213.27 184.485 217.596 186.09C218.47 186.416 219.462 186.307 219.984 185.547C220.426 184.919 220.219 183.81 219.354 183.492C204.014 177.799 184.077 175.945 170.793 186.338C167.647 188.805 165.196 191.822 163.609 195.219C163.285 195.917 163.97 196.949 164.826 197.073C180.004 199.144 196.632 197.802 210.368 191.55C213.748 190.015 216.92 188.122 219.696 185.858C221.354 184.524 218.876 182.398 217.244 183.725Z" fill="white"/>
<path d="M1.68585 194.295C3.93816 194.295 3.93816 191.287 1.68585 191.287C-0.557444 191.295 -0.566454 194.295 1.68585 194.295Z" fill="white"/>
<path d="M340 132.504C340 205.682 271.07 265 186.034 265C100.999 265 32.0781 205.674 32.0781 132.504C32.0781 128.3 32.3034 124.135 32.7451 120.032C32.9253 118.411 33.1326 116.79 33.385 115.185C38.6394 80.492 59.504 50.0186 89.7059 29.1549C90.4179 28.6585 91.1389 28.1699 91.8599 27.689C117.889 10.3233 150.56 0 186.034 0C271.07 0 340 59.3258 340 132.504Z" fill="#0096C7"/>
<path d="M107.397 174.239C106.298 167.398 106.658 160.426 109.488 153.911C111.768 148.668 115.446 144.037 119.24 139.531C121.16 137.251 123.107 134.986 124.927 132.651C125.855 131.465 126.748 130.255 127.595 129.029C127.973 128.486 128.46 127.92 128.64 127.307C128.821 126.703 128.893 126.059 129.037 125.446C130.119 120.637 131.75 115.906 133.976 111.392C137.969 103.279 143.917 95.9344 151.425 89.9467C158.689 84.153 167.305 79.6855 176.525 76.6064C185.79 73.5195 195.659 71.8054 205.574 71.3788C215.515 70.9522 225.546 71.7976 235.19 73.915C244.743 76.0169 253.945 79.3675 262.21 84.0134C270.439 88.6437 277.685 94.5693 283.228 101.573C289.05 108.918 292.862 117.333 294.602 126.09C295.638 131.31 296.278 136.653 296.666 141.935C297.026 146.876 297.062 151.84 296.657 156.773C295.972 165.219 293.989 173.642 290.186 181.476C286.923 188.192 282.308 194.405 276.459 199.671C270.916 204.658 264.346 208.746 257.217 211.895C249.943 215.098 242.129 217.332 234.135 218.774C225.879 220.263 217.425 220.915 208.998 220.899C200.391 220.884 191.784 220.178 183.312 218.867C175.038 217.588 166.882 215.734 158.968 213.291C151.533 210.995 144.287 208.18 137.473 204.736C131.353 201.649 125.54 198.035 120.493 193.746C116.131 190.038 112.3 185.772 109.795 180.925C108.704 178.776 107.875 176.535 107.397 174.239C107.361 174.045 107.019 174.131 107.064 174.317C108.109 179.273 110.741 183.872 114.184 187.921C118.104 192.528 123.025 196.46 128.334 199.873C134.454 203.797 141.132 207.055 148.072 209.785C155.625 212.763 163.502 215.121 171.532 216.928C179.86 218.798 188.377 220.077 196.948 220.721C205.546 221.365 214.226 221.373 222.815 220.589C231.134 219.837 239.38 218.348 247.258 215.92C254.846 213.578 262.093 210.359 268.528 206.163C275.008 201.928 280.605 196.732 284.958 190.814C289.852 184.175 293.133 176.729 295.043 169.058C297.378 159.697 297.738 150.033 296.918 140.508C296.08 130.805 294.656 121.01 290.231 111.982C286.346 104.055 280.488 96.9194 273.205 91.0403C266.058 85.2698 257.631 80.7326 248.61 77.4595C239.435 74.1322 229.638 72.1001 219.724 71.3168C209.719 70.5334 199.562 71.0298 189.747 72.8757C180.085 74.6906 170.73 77.8396 162.348 82.3691C153.939 86.9219 146.576 92.863 140.916 99.8977C134.643 107.693 130.578 116.666 128.568 125.973C128.406 126.71 128.307 127.37 127.874 128.029C127.433 128.696 126.973 129.347 126.504 129.999C125.612 131.24 124.675 132.457 123.71 133.652C121.836 135.986 119.862 138.259 117.933 140.57C114.184 145.069 110.696 149.769 108.641 155.051C106.226 161.271 106.018 167.856 107.055 174.309C107.091 174.503 107.424 174.425 107.397 174.239Z" fill="#0096C7"/>
<path d="M1.68585 194.295C3.93816 194.295 3.93816 191.287 1.68585 191.287C-0.557444 191.295 -0.566454 194.295 1.68585 194.295Z" fill="white"/>
<path d="M101.973 111.241L102.026 111.16L102.044 111.065C110.724 66.1124 155.853 45.5525 200.168 47.1191C244.493 48.6861 287.558 72.3701 292.161 115.448L292.163 115.462L292.165 115.475C298.125 152.137 288.478 177.211 270.55 193.317C252.594 209.448 226.25 216.655 198.691 217.383C171.139 218.11 142.445 212.357 119.86 202.645C108.568 197.79 98.8207 191.953 91.5096 185.456C84.1991 178.96 79.3544 171.832 77.7984 164.394C75.615 151.051 78.8708 142.083 84.0422 134.31C86.5175 130.59 89.4309 127.144 92.4192 123.609C92.5661 123.436 92.7131 123.262 92.8603 123.087C95.9958 119.377 99.1893 115.555 101.973 111.241Z" fill="white" stroke="white"/>
<path d="M135.165 115.058C136.546 86.682 115.906 93.4302 112.825 104.781C106.766 127.996 132.579 124.555 135.165 115.058Z" fill="#0096C7"/>
<path d="M227.533 101.695C258.796 109.276 249.749 145.287 217.115 144.046C155.825 141.696 197.341 92.6232 227.533 101.695Z" fill="#0096C7"/>
<path d="M132.28 137.466C135.598 132.758 141.709 133.68 143.007 140.082Z" fill="#E6E7E8"/>
<path d="M132.714 137.679C133.878 136.056 135.939 134.504 138.319 135.027C140.947 135.604 142.101 138.131 142.524 140.197C142.637 140.738 143.595 140.508 143.492 139.967C143.07 137.963 142.07 135.825 139.968 134.708C138.299 133.821 136.228 133.91 134.569 134.779C133.425 135.382 132.539 136.269 131.848 137.244C131.508 137.723 132.374 138.149 132.714 137.679Z" fill="#0096C7"/>
<path d="M143.708 189.572C115.556 185.679 90.6404 169.682 95.2465 137.963L96.5861 137.44C126.469 159.369 173.137 159.892 213.562 156.682C214.674 164.867 211.068 171.784 204.494 177.193C191.397 187.967 166.491 192.737 143.708 189.572Z" fill="#0096C7"/>
<path d="M144.245 187.913C133.838 186.459 123.646 183.382 115.104 177.973C106.655 172.626 100.626 164.938 98.1328 156.159C96.4429 150.209 96.3914 144.019 97.2466 137.963C96.9169 138.459 96.5872 138.956 96.2574 139.444C96.7005 139.266 97.1539 139.098 97.597 138.92C96.7932 138.832 95.9792 138.743 95.1754 138.654C107.159 147.407 121.761 152.878 136.97 155.964C152.952 159.209 169.522 160.052 185.895 159.795C195.138 159.644 204.361 159.129 213.563 158.402C212.893 157.826 212.233 157.258 211.564 156.682C214.305 178.168 184.834 187.24 164.864 188.579C158.001 189.04 151.056 188.845 144.245 187.913C143.184 187.772 142.091 188.153 141.782 189.111C141.525 189.926 142.102 191.079 143.173 191.23C156.033 192.986 169.398 192.516 181.949 189.439C192.985 186.743 204.196 181.821 210.78 173.451C214.665 168.52 216.314 162.588 215.562 156.682C215.448 155.822 214.727 154.873 213.563 154.962C197.477 156.239 181.279 156.886 165.142 155.99C149.644 155.13 133.961 152.816 119.607 147.549C111.827 144.693 104.449 140.942 97.9885 136.225C97.2466 135.684 96.4429 135.613 95.567 135.959C94.1759 136.5 93.3928 136.863 93.1867 138.317C92.96 139.905 92.8157 141.492 92.7333 143.088C92.5891 146.103 92.7333 149.127 93.197 152.115C94.0111 157.409 95.8452 162.552 98.8438 167.243C104.388 175.916 113.62 182.398 124.038 186.388C130.138 188.72 136.568 190.308 143.153 191.23C144.214 191.381 145.306 190.991 145.615 190.033C145.904 189.208 145.317 188.064 144.245 187.913Z" fill="#0096C7"/>
<path d="M204.505 176.51C191.398 187.284 166.492 192.046 143.709 188.889C147.151 181.361 155.394 175.464 164.544 173.043C175.859 170.046 188.193 171.562 199.404 174.825C201.104 175.313 202.815 175.872 204.505 176.51Z" fill="white"/>
<path d="M203.094 175.286C197.705 179.675 190.925 182.646 183.928 184.641C175.89 186.929 167.431 188.029 158.971 188.117C154.045 188.17 149.109 187.887 144.246 187.222C144.709 187.931 145.173 188.632 145.637 189.341C148.501 183.213 154.653 178.496 161.547 175.827C169.739 172.652 179.291 172.599 187.988 174C193.274 174.851 198.55 176.155 203.496 177.991C204.495 178.363 205.629 178.239 206.227 177.37C206.731 176.652 206.494 175.383 205.505 175.02C187.967 168.511 165.174 166.392 149.985 178.274C146.389 181.094 143.586 184.544 141.773 188.428C141.402 189.226 142.185 190.405 143.164 190.547C160.516 192.915 179.528 191.38 195.232 184.233C199.096 182.477 202.723 180.314 205.897 177.725C207.793 176.199 204.959 173.77 203.094 175.286Z" fill="white"/>
<path d="M234.92 110.095C235.341 110.255 235.736 110.441 236.105 110.653C235.959 110.569 235.813 110.486 235.667 110.403C236.157 110.691 236.595 111.025 236.981 111.397C236.87 111.288 236.758 111.179 236.646 111.07C237.042 111.461 237.377 111.884 237.634 112.339C237.566 112.211 237.488 112.083 237.42 111.954C237.669 112.409 237.849 112.877 237.935 113.365C237.909 113.224 237.884 113.083 237.858 112.942C237.884 113.102 237.901 113.269 237.909 113.429C237.952 114.269 238.863 115.07 240.057 115.032C241.183 114.993 242.248 114.326 242.205 113.429C242.076 110.916 240.126 108.473 237.085 107.325C236.569 107.133 236.002 107.05 235.426 107.165C234.928 107.268 234.387 107.556 234.146 107.902C233.631 108.633 233.846 109.691 234.92 110.095Z" fill="white"/>
<path d="M120.111 101.17C120.152 101.117 120.203 101.064 120.255 101.01C120.183 101.081 120.121 101.161 120.049 101.232C120.378 100.869 120.749 100.55 121.172 100.266C121.089 100.328 120.996 100.381 120.914 100.443C121.336 100.168 121.79 99.9379 122.284 99.7606C122.181 99.7961 122.078 99.8315 121.975 99.8759C122.356 99.7429 122.748 99.6365 123.149 99.5656C123.448 99.5124 123.767 99.282 123.922 99.0604C124.087 98.821 124.148 98.4753 124.056 98.2094C123.829 97.6067 123.18 97.3141 122.469 97.4382C120.605 97.7573 118.988 98.7501 117.896 100.071C117.711 100.292 117.69 100.674 117.762 100.922C117.845 101.179 118.071 101.454 118.349 101.587C118.648 101.72 119.009 101.79 119.338 101.702C119.678 101.587 119.905 101.418 120.111 101.17Z" fill="white"/>
</svg>
